<?xml version="1.0" encoding="UTF-8"?>
<svg width="400" height="300" viewBox="0 0 400 300" fill="none" xmlns="http://www.w3.org/2000/svg">
  <!-- Background Elements -->
  <rect width="400" height="300" fill="#F8FAFC" rx="16"/>
  
  <!-- Dashboard Header -->
  <rect x="20" y="20" width="360" height="40" fill="#FFFFFF" rx="8"/>
  <circle cx="40" cy="40" r="8" fill="#81f4ce"/>
  <rect x="60" y="36" width="80" height="8" fill="#64748B" rx="4"/>
  
  <!-- Main Content Area -->
  <rect x="20" y="80" width="170" height="100" fill="#FFFFFF" rx="8"/>
  <path d="M40 150 L70 120 L100 140 L130 100 L160 130" stroke="#81f4ce" stroke-width="2" fill="none"/>
  <circle cx="70" cy="120" r="3" fill="#81f4ce"/>
  <circle cx="100" cy="140" r="3" fill="#81f4ce"/>
  <circle cx="130" cy="100" r="3" fill="#81f4ce"/>
  
  <!-- Side Stats -->
  <rect x="210" y="80" width="170" height="45" fill="#FFFFFF" rx="8"/>
  <rect x="230" y="95" width="60" height="15" fill="#E2E8F0" rx="4"/>
  <rect x="300" y="95" width="60" height="15" fill="#81f4ce" rx="4"/>
  
  <rect x="210" y="135" width="170" height="45" fill="#FFFFFF" rx="8"/>
  <rect x="230" y="150" width="40" height="15" fill="#E2E8F0" rx="4"/>
  <rect x="280" y="150" width="80" height="15" fill="#81f4ce" rx="4"/>
  
  <!-- Bottom Section -->
  <rect x="20" y="200" width="360" height="80" fill="#FFFFFF" rx="8"/>
  <rect x="40" y="220" width="100" height="8" fill="#E2E8F0" rx="4"/>
  <rect x="40" y="240" width="320" height="20" fill="#EFF6FF" rx="4"/>
  <rect x="40" y="240" width="200" height="20" fill="#81f4ce" rx="4"/>
  
  <!-- Decorative Elements -->
  <circle cx="380" cy="40" r="6" fill="#E2E8F0"/>
  <circle cx="360" cy="40" r="6" fill="#E2E8F0"/>
</svg> 