<?xml version="1.0" encoding="UTF-8"?>
<svg width="400" height="300" viewBox="0 0 400 300" fill="none" xmlns="http://www.w3.org/2000/svg">
  <!-- Background Elements -->
  <rect width="400" height="300" fill="#FFFFFF" rx="16"/>
  
  <!-- Dashboard Header -->
  <rect x="20" y="20" width="360" height="40" fill="#FFFFFF" rx="8" stroke="#E5E7EB" stroke-width="1"/>
  <circle cx="40" cy="40" r="8" fill="#74BCC8"/>
  <rect x="60" y="36" width="80" height="8" fill="#F3F4F6" rx="4"/>
  
  <!-- Main Content Area -->
  <rect x="20" y="80" width="170" height="100" fill="#FFFFFF" rx="8" stroke="#E5E7EB" stroke-width="1"/>
  <path d="M40 150 L70 120 L100 140 L130 100 L160 130" stroke="#5BCB81" stroke-width="2" fill="none"/>
  <circle cx="70" cy="120" r="3" fill="#74BCC8"/>
  <circle cx="100" cy="140" r="3" fill="#74BCC8"/>
  <circle cx="130" cy="100" r="3" fill="#74BCC8"/>
  
  <!-- Side Stats -->
  <rect x="210" y="80" width="170" height="45" fill="#FFFFFF" rx="8" stroke="#E5E7EB" stroke-width="1"/>
  <rect x="230" y="95" width="60" height="15" fill="#F3F4F6" rx="4"/>
  <rect x="300" y="95" width="60" height="15" fill="#B4F8E3" rx="4"/>
  
  <rect x="210" y="135" width="170" height="45" fill="#FFFFFF" rx="8" stroke="#E5E7EB" stroke-width="1"/>
  <rect x="230" y="150" width="40" height="15" fill="#F3F4F6" rx="4"/>
  <rect x="280" y="150" width="80" height="15" fill="#EDF9C0" rx="4"/>
  
  <!-- Bottom Section -->
  <rect x="20" y="200" width="360" height="80" fill="#FFFFFF" rx="8" stroke="#E5E7EB" stroke-width="1"/>
  <rect x="40" y="220" width="100" height="8" fill="#F3F4F6" rx="4"/>
  <rect x="40" y="240" width="320" height="20" fill="#F3F4F6" rx="4"/>
  <rect x="40" y="240" width="200" height="20" fill="#74BCC8" rx="4"/>
  
  <!-- Decorative Elements -->
  <circle cx="380" cy="40" r="6" fill="#F3F4F6"/>
  <circle cx="360" cy="40" r="6" fill="#F3F4F6"/>
  
  <!-- Additional Decorative Elements -->
  <rect x="320" y="200" width="40" height="40" fill="#5BCB81" rx="6" opacity="0.1"/>
  <rect x="330" y="210" width="20" height="20" fill="#FFFFFF" rx="4" stroke="#74BCC8" stroke-width="1"/>
</svg> 